<?xml version="1.0" encoding="UTF-8"?>
<svg xmlns="http://www.w3.org/2000/svg" width="1600" height="900" viewBox="0 0 1600 900" preserveAspectRatio="xMidYMid slice">
  <defs>
    <linearGradient id="g1" x1="0" x2="1" y1="0" y2="1">
      <stop offset="0%" stop-color="#ffffff" stop-opacity="0"/>
      <stop offset="100%" stop-color="#e6f2ff" stop-opacity="0.18"/>
    </linearGradient>
    <radialGradient id="g2" cx="80%" cy="20%" r="50%">
      <stop offset="0%" stop-color="#cfe8ff" stop-opacity="0.45"/>
      <stop offset="100%" stop-color="#ffffff" stop-opacity="0"/>
    </radialGradient>
  </defs>

  <rect width="100%" height="100%" fill="url(#g1)" />

  <!-- soft organic shapes -->
  <g fill-opacity="0.06" fill="#0f172a">
    <path d="M0 300 C200 220 400 380 700 320 C1000 260 1200 420 1600 360 L1600 900 L0 900 Z" />
    <path d="M0 120 C260 40 420 220 760 140 C1100 60 1320 240 1600 160 L1600 0 L0 0 Z" />
  </g>

  <circle cx="1400" cy="120" r="220" fill="url(#g2)" />
  <circle cx="200" cy="700" r="180" fill="#dff6f0" fill-opacity="0.06" />

  <!-- subtle grid dots -->
  <g fill="#ffffff" fill-opacity="0.03">
    <defs>
      <pattern id="p" width="40" height="40" patternUnits="userSpaceOnUse">
        <circle cx="2" cy="2" r="1" />
      </pattern>
    </defs>
    <rect width="100%" height="100%" fill="url(#p)" />
  </g>
</svg>
